<svg xmlns="http://www.w3.org/2000/svg" width="1344" height="700" viewBox="0 0 1344 700" font-family="Consolas,Menlo,monospace">
<defs><linearGradient id="gb" x1="0" y1="0" x2="1" y2="0"><stop offset="0" stop-color="rgba(38,166,154,0.12)"/><stop offset="1" stop-color="rgba(38,166,154,0.03)"/></linearGradient><linearGradient id="gr" x1="0" y1="0" x2="1" y2="0"><stop offset="0" stop-color="rgba(239,83,80,0.12)"/><stop offset="1" stop-color="rgba(239,83,80,0.03)"/></linearGradient></defs>
<rect width="1344" height="700" fill="#1e222d"/>
<text x="20.0" y="30.0" font-size="17" fill="#d1d4dc" text-anchor="start" font-weight="bold">TTFMEssence HTF — visual v2: softer, less clutter (V1 implemented  vs  V2 proposed)</text>
<text x="20.0" y="50.0" font-size="12" fill="#787b86" text-anchor="start">same candles, same zones, same x2 — only the styling changes</text>
<text x="560.0" y="50.0" font-size="12" fill="#26a69a" text-anchor="start" font-weight="bold">V1 — as implemented</text>
<text x="1248.0" y="50.0" font-size="12" fill="#42a5f5" text-anchor="start" font-weight="bold">V2 — proposed</text>
<rect x="16" y="66" width="640" height="534" fill="none" stroke="#262b36" stroke-width="1"/>
<rect x="688" y="66" width="640" height="534" fill="none" stroke="#262b36" stroke-width="1"/>
<line x1="26" y1="528.1" x2="648" y2="528.1" stroke="#262b36" stroke-width="1"/>
<text x="646.0" y="531.1" font-size="9" fill="#787b86" text-anchor="end">1.0910</text>
<line x1="26" y1="472.4" x2="648" y2="472.4" stroke="#262b36" stroke-width="1"/>
<text x="646.0" y="475.4" font-size="9" fill="#787b86" text-anchor="end">1.0930</text>
<line x1="26" y1="416.6" x2="648" y2="416.6" stroke="#262b36" stroke-width="1"/>
<text x="646.0" y="419.6" font-size="9" fill="#787b86" text-anchor="end">1.0950</text>
<line x1="26" y1="360.8" x2="648" y2="360.8" stroke="#262b36" stroke-width="1"/>
<text x="646.0" y="363.8" font-size="9" fill="#787b86" text-anchor="end">1.0970</text>
<line x1="26" y1="305.1" x2="648" y2="305.1" stroke="#262b36" stroke-width="1"/>
<text x="646.0" y="308.1" font-size="9" fill="#787b86" text-anchor="end">1.0990</text>
<line x1="26" y1="249.3" x2="648" y2="249.3" stroke="#262b36" stroke-width="1"/>
<text x="646.0" y="252.3" font-size="9" fill="#787b86" text-anchor="end">1.1010</text>
<line x1="26" y1="193.6" x2="648" y2="193.6" stroke="#262b36" stroke-width="1"/>
<text x="646.0" y="196.6" font-size="9" fill="#787b86" text-anchor="end">1.1030</text>
<line x1="26" y1="137.8" x2="648" y2="137.8" stroke="#262b36" stroke-width="1"/>
<text x="646.0" y="140.8" font-size="9" fill="#787b86" text-anchor="end">1.1050</text>
<line x1="29.5" y1="271.2" x2="29.5" y2="289.8" stroke="#26a69a" stroke-width="1.3"/>
<rect x="25.0" y="282.8" width="9" height="1.0" fill="#26a69a"/>
<line x1="45.5" y1="268.6" x2="45.5" y2="297.6" stroke="#26a69a" stroke-width="1.3"/>
<rect x="41.0" y="273.3" width="9" height="9.4" fill="#26a69a"/>
<line x1="61.5" y1="266.3" x2="61.5" y2="306.4" stroke="#ef5350" stroke-width="1.3"/>
<rect x="57.0" y="273.3" width="9" height="29.1" fill="#ef5350"/>
<line x1="77.5" y1="298.4" x2="77.5" y2="329.3" stroke="#ef5350" stroke-width="1.3"/>
<rect x="73.0" y="302.4" width="9" height="13.4" fill="#ef5350"/>
<line x1="93.5" y1="305.5" x2="93.5" y2="345.4" stroke="#ef5350" stroke-width="1.3"/>
<rect x="89.0" y="315.9" width="9" height="16.7" fill="#ef5350"/>
<line x1="109.5" y1="305.1" x2="109.5" y2="342.0" stroke="#26a69a" stroke-width="1.3"/>
<rect x="105.0" y="317.0" width="9" height="15.5" fill="#26a69a"/>
<line x1="125.5" y1="290.2" x2="125.5" y2="324.5" stroke="#26a69a" stroke-width="1.3"/>
<rect x="121.0" y="305.2" width="9" height="11.8" fill="#26a69a"/>
<line x1="141.5" y1="270.2" x2="141.5" y2="318.4" stroke="#26a69a" stroke-width="1.3"/>
<rect x="137.0" y="279.9" width="9" height="25.3" fill="#26a69a"/>
<line x1="157.5" y1="269.4" x2="157.5" y2="318.7" stroke="#ef5350" stroke-width="1.3"/>
<rect x="153.0" y="279.9" width="9" height="25.2" fill="#ef5350"/>
<line x1="173.5" y1="295.1" x2="173.5" y2="321.0" stroke="#ef5350" stroke-width="1.3"/>
<rect x="169.0" y="305.1" width="9" height="4.2" fill="#ef5350"/>
<line x1="189.5" y1="306.0" x2="189.5" y2="343.8" stroke="#ef5350" stroke-width="1.3"/>
<rect x="185.0" y="309.3" width="9" height="28.8" fill="#ef5350"/>
<line x1="205.5" y1="331.7" x2="205.5" y2="358.9" stroke="#ef5350" stroke-width="1.3"/>
<rect x="201.0" y="338.1" width="9" height="17.0" fill="#ef5350"/>
<line x1="221.5" y1="348.3" x2="221.5" y2="359.1" stroke="#26a69a" stroke-width="1.3"/>
<rect x="217.0" y="354.0" width="9" height="1.0" fill="#26a69a"/>
<line x1="237.5" y1="347.8" x2="237.5" y2="393.8" stroke="#ef5350" stroke-width="1.3"/>
<rect x="233.0" y="354.0" width="9" height="29.0" fill="#ef5350"/>
<line x1="253.5" y1="375.7" x2="253.5" y2="408.7" stroke="#ef5350" stroke-width="1.3"/>
<rect x="249.0" y="383.0" width="9" height="18.2" fill="#ef5350"/>
<line x1="269.5" y1="385.7" x2="269.5" y2="407.4" stroke="#26a69a" stroke-width="1.3"/>
<rect x="265.0" y="391.1" width="9" height="10.1" fill="#26a69a"/>
<line x1="285.5" y1="373.1" x2="285.5" y2="402.1" stroke="#26a69a" stroke-width="1.3"/>
<rect x="281.0" y="387.6" width="9" height="3.5" fill="#26a69a"/>
<line x1="301.5" y1="377.2" x2="301.5" y2="409.4" stroke="#ef5350" stroke-width="1.3"/>
<rect x="297.0" y="387.6" width="9" height="16.8" fill="#ef5350"/>
<line x1="317.5" y1="386.2" x2="317.5" y2="409.3" stroke="#26a69a" stroke-width="1.3"/>
<rect x="313.0" y="398.2" width="9" height="6.3" fill="#26a69a"/>
<line x1="333.5" y1="370.5" x2="333.5" y2="413.4" stroke="#26a69a" stroke-width="1.3"/>
<rect x="329.0" y="378.1" width="9" height="20.1" fill="#26a69a"/>
<line x1="349.5" y1="367.2" x2="349.5" y2="418.1" stroke="#ef5350" stroke-width="1.3"/>
<rect x="345.0" y="378.1" width="9" height="30.3" fill="#ef5350"/>
<line x1="365.5" y1="377.1" x2="365.5" y2="421.7" stroke="#26a69a" stroke-width="1.3"/>
<rect x="361.0" y="388.4" width="9" height="19.9" fill="#26a69a"/>
<line x1="269.5" y1="96" x2="269.5" y2="556" stroke="#787b86" stroke-width="1" stroke-dasharray="2,4"/>
<text x="265.5" y="107.0" font-size="9" fill="#787b86" text-anchor="end">D day</text>
<text x="388.0" y="98.0" font-size="10" fill="#d1d4dc" text-anchor="start" font-weight="bold">4H</text>
<line x1="400.5" y1="282.8" x2="400.5" y2="383.2" stroke="#26a69a" stroke-width="1.5"/>
<rect x="396.0" y="303.1" width="9" height="45.8" fill="none" stroke="#787b86" stroke-width="1" stroke-dasharray="2,2"/>
<rect x="393.0" y="305.1" width="15" height="41.8" fill="#26a69a"/>
<line x1="417.5" y1="271.6" x2="417.5" y2="338.5" stroke="#ef5350" stroke-width="1.5"/>
<rect x="410.0" y="305.1" width="15" height="16.7" fill="#ef5350"/>
<line x1="434.5" y1="288.4" x2="434.5" y2="372.0" stroke="#ef5350" stroke-width="1.5"/>
<rect x="427.0" y="321.8" width="15" height="33.5" fill="#ef5350"/>
<line x1="451.5" y1="305.1" x2="451.5" y2="394.3" stroke="#26a69a" stroke-width="1.5"/>
<rect x="444.0" y="313.5" width="15" height="41.8" fill="#26a69a"/>
<line x1="468.5" y1="260.5" x2="468.5" y2="349.7" stroke="#26a69a" stroke-width="1.5"/>
<rect x="461.0" y="280.0" width="15" height="33.5" fill="#26a69a"/>
<line x1="485.5" y1="243.8" x2="485.5" y2="310.7" stroke="#26a69a" stroke-width="1.5"/>
<rect x="478.0" y="266.1" width="15" height="13.9" fill="#26a69a"/>
<text x="502.0" y="98.0" font-size="10" fill="#d1d4dc" text-anchor="start" font-weight="bold">D</text>
<line x1="514.5" y1="249.3" x2="514.5" y2="366.4" stroke="#ef5350" stroke-width="1.5"/>
<rect x="507.0" y="305.1" width="15" height="41.8" fill="#ef5350"/>
<line x1="531.5" y1="291.2" x2="531.5" y2="411.0" stroke="#26a69a" stroke-width="1.5"/>
<rect x="524.0" y="310.7" width="15" height="36.2" fill="#26a69a"/>
<line x1="548.5" y1="227.0" x2="548.5" y2="360.8" stroke="#26a69a" stroke-width="1.5"/>
<rect x="541.0" y="271.6" width="15" height="39.0" fill="#26a69a"/>
<text x="392.0" y="118.0" font-size="9" fill="#787b86" text-anchor="start">body x2 (old dashed ghost)</text>
<line x1="269.5" y1="160.1" x2="642" y2="160.1" stroke="#ff9800" stroke-width="1.6" stroke-dasharray="7,5"/>
<rect x="271.5" y="141.1" width="92" height="15" rx="3" fill="#0d1b2a" stroke="#ff9800" stroke-width="0.8"/>
<text x="277.5" y="152.6" font-size="8" fill="#ff9800" text-anchor="start" font-weight="bold">PDH 1.1042</text>
<line x1="269.5" y1="310.7" x2="642" y2="310.7" stroke="#29b6f6" stroke-width="1.6" stroke-dasharray="7,5"/>
<rect x="271.5" y="291.7" width="92" height="15" rx="3" fill="#0d1b2a" stroke="#29b6f6" stroke-width="0.8"/>
<text x="277.5" y="303.2" font-size="8" fill="#29b6f6" text-anchor="start" font-weight="bold">PDL 1.0988</text>
<rect x="125.5" y="372.0" width="516.5" height="-66.9" fill="rgba((38, 166, 154),0.12)" opacity="1"/>
<line x1="125.5" y1="305.1" x2="642" y2="305.1" stroke="#26a69a" stroke-width="1" stroke-dasharray="5,4" opacity="0.9"/>
<line x1="125.5" y1="372.0" x2="642" y2="372.0" stroke="#26a69a" stroke-width="1" stroke-dasharray="5,4" opacity="0.9"/>
<text x="131.5" y="316.1" font-size="9" fill="#26a69a" text-anchor="start" opacity="1">FVG 4H</text>
<rect x="237.5" y="321.8" width="404.5" height="-50.2" fill="rgba((140, 140, 140),0.12)" opacity="0.5"/>
<line x1="237.5" y1="271.6" x2="642" y2="271.6" stroke="#9aa0a6" stroke-width="1" stroke-dasharray="5,4" opacity="0.5"/>
<line x1="237.5" y1="321.8" x2="642" y2="321.8" stroke="#9aa0a6" stroke-width="1" stroke-dasharray="5,4" opacity="0.5"/>
<text x="243.5" y="282.6" font-size="9" fill="#9aa0a6" text-anchor="start" opacity="0.6">FVG 4H</text>
<rect x="411.0" y="372.0" width="81.0" height="-66.9" fill="rgba((38, 166, 154),0.22)" stroke="#26a69a" stroke-width="1" opacity="1"/>
<text x="451.5" y="341.5" font-size="9" fill="#26a69a" text-anchor="middle" opacity="1">FVG</text>
<rect x="445.0" y="321.8" width="47.0" height="-50.2" fill="rgba((239, 83, 80),0.22)" stroke="#9aa0a6" stroke-width="1" opacity="0.55"/>
<text x="468.5" y="299.7" font-size="9" fill="#9aa0a6" text-anchor="middle" opacity="0.6">FVG filled</text>
<rect x="525.0" y="346.9" width="30.0" height="-69.7" fill="rgba((38, 166, 154),0.22)" stroke="#26a69a" stroke-width="1" opacity="1"/>
<text x="540.0" y="315.1" font-size="9" fill="#26a69a" text-anchor="middle" opacity="1">FVG</text>
<line x1="698" y1="528.1" x2="1320" y2="528.1" stroke="#262b36" stroke-width="1"/>
<text x="1318.0" y="531.1" font-size="9" fill="#787b86" text-anchor="end">1.0910</text>
<line x1="698" y1="472.4" x2="1320" y2="472.4" stroke="#262b36" stroke-width="1"/>
<text x="1318.0" y="475.4" font-size="9" fill="#787b86" text-anchor="end">1.0930</text>
<line x1="698" y1="416.6" x2="1320" y2="416.6" stroke="#262b36" stroke-width="1"/>
<text x="1318.0" y="419.6" font-size="9" fill="#787b86" text-anchor="end">1.0950</text>
<line x1="698" y1="360.8" x2="1320" y2="360.8" stroke="#262b36" stroke-width="1"/>
<text x="1318.0" y="363.8" font-size="9" fill="#787b86" text-anchor="end">1.0970</text>
<line x1="698" y1="305.1" x2="1320" y2="305.1" stroke="#262b36" stroke-width="1"/>
<text x="1318.0" y="308.1" font-size="9" fill="#787b86" text-anchor="end">1.0990</text>
<line x1="698" y1="249.3" x2="1320" y2="249.3" stroke="#262b36" stroke-width="1"/>
<text x="1318.0" y="252.3" font-size="9" fill="#787b86" text-anchor="end">1.1010</text>
<line x1="698" y1="193.6" x2="1320" y2="193.6" stroke="#262b36" stroke-width="1"/>
<text x="1318.0" y="196.6" font-size="9" fill="#787b86" text-anchor="end">1.1030</text>
<line x1="698" y1="137.8" x2="1320" y2="137.8" stroke="#262b36" stroke-width="1"/>
<text x="1318.0" y="140.8" font-size="9" fill="#787b86" text-anchor="end">1.1050</text>
<line x1="701.5" y1="271.2" x2="701.5" y2="289.8" stroke="#26a69a" stroke-width="1.3"/>
<rect x="697.0" y="282.8" width="9" height="1.0" fill="#26a69a"/>
<line x1="717.5" y1="268.6" x2="717.5" y2="297.6" stroke="#26a69a" stroke-width="1.3"/>
<rect x="713.0" y="273.3" width="9" height="9.4" fill="#26a69a"/>
<line x1="733.5" y1="266.3" x2="733.5" y2="306.4" stroke="#ef5350" stroke-width="1.3"/>
<rect x="729.0" y="273.3" width="9" height="29.1" fill="#ef5350"/>
<line x1="749.5" y1="298.4" x2="749.5" y2="329.3" stroke="#ef5350" stroke-width="1.3"/>
<rect x="745.0" y="302.4" width="9" height="13.4" fill="#ef5350"/>
<line x1="765.5" y1="305.5" x2="765.5" y2="345.4" stroke="#ef5350" stroke-width="1.3"/>
<rect x="761.0" y="315.9" width="9" height="16.7" fill="#ef5350"/>
<line x1="781.5" y1="305.1" x2="781.5" y2="342.0" stroke="#26a69a" stroke-width="1.3"/>
<rect x="777.0" y="317.0" width="9" height="15.5" fill="#26a69a"/>
<line x1="797.5" y1="290.2" x2="797.5" y2="324.5" stroke="#26a69a" stroke-width="1.3"/>
<rect x="793.0" y="305.2" width="9" height="11.8" fill="#26a69a"/>
<line x1="813.5" y1="270.2" x2="813.5" y2="318.4" stroke="#26a69a" stroke-width="1.3"/>
<rect x="809.0" y="279.9" width="9" height="25.3" fill="#26a69a"/>
<line x1="829.5" y1="269.4" x2="829.5" y2="318.7" stroke="#ef5350" stroke-width="1.3"/>
<rect x="825.0" y="279.9" width="9" height="25.2" fill="#ef5350"/>
<line x1="845.5" y1="295.1" x2="845.5" y2="321.0" stroke="#ef5350" stroke-width="1.3"/>
<rect x="841.0" y="305.1" width="9" height="4.2" fill="#ef5350"/>
<line x1="861.5" y1="306.0" x2="861.5" y2="343.8" stroke="#ef5350" stroke-width="1.3"/>
<rect x="857.0" y="309.3" width="9" height="28.8" fill="#ef5350"/>
<line x1="877.5" y1="331.7" x2="877.5" y2="358.9" stroke="#ef5350" stroke-width="1.3"/>
<rect x="873.0" y="338.1" width="9" height="17.0" fill="#ef5350"/>
<line x1="893.5" y1="348.3" x2="893.5" y2="359.1" stroke="#26a69a" stroke-width="1.3"/>
<rect x="889.0" y="354.0" width="9" height="1.0" fill="#26a69a"/>
<line x1="909.5" y1="347.8" x2="909.5" y2="393.8" stroke="#ef5350" stroke-width="1.3"/>
<rect x="905.0" y="354.0" width="9" height="29.0" fill="#ef5350"/>
<line x1="925.5" y1="375.7" x2="925.5" y2="408.7" stroke="#ef5350" stroke-width="1.3"/>
<rect x="921.0" y="383.0" width="9" height="18.2" fill="#ef5350"/>
<line x1="941.5" y1="385.7" x2="941.5" y2="407.4" stroke="#26a69a" stroke-width="1.3"/>
<rect x="937.0" y="391.1" width="9" height="10.1" fill="#26a69a"/>
<line x1="957.5" y1="373.1" x2="957.5" y2="402.1" stroke="#26a69a" stroke-width="1.3"/>
<rect x="953.0" y="387.6" width="9" height="3.5" fill="#26a69a"/>
<line x1="973.5" y1="377.2" x2="973.5" y2="409.4" stroke="#ef5350" stroke-width="1.3"/>
<rect x="969.0" y="387.6" width="9" height="16.8" fill="#ef5350"/>
<line x1="989.5" y1="386.2" x2="989.5" y2="409.3" stroke="#26a69a" stroke-width="1.3"/>
<rect x="985.0" y="398.2" width="9" height="6.3" fill="#26a69a"/>
<line x1="1005.5" y1="370.5" x2="1005.5" y2="413.4" stroke="#26a69a" stroke-width="1.3"/>
<rect x="1001.0" y="378.1" width="9" height="20.1" fill="#26a69a"/>
<line x1="1021.5" y1="367.2" x2="1021.5" y2="418.1" stroke="#ef5350" stroke-width="1.3"/>
<rect x="1017.0" y="378.1" width="9" height="30.3" fill="#ef5350"/>
<line x1="1037.5" y1="377.1" x2="1037.5" y2="421.7" stroke="#26a69a" stroke-width="1.3"/>
<rect x="1033.0" y="388.4" width="9" height="19.9" fill="#26a69a"/>
<line x1="941.5" y1="96" x2="941.5" y2="556" stroke="#787b86" stroke-width="1" stroke-dasharray="2,4"/>
<text x="937.5" y="107.0" font-size="9" fill="#787b86" text-anchor="end">D day</text>
<text x="1060.0" y="98.0" font-size="10" fill="#d1d4dc" text-anchor="start" font-weight="bold">4H</text>
<line x1="1072.5" y1="282.8" x2="1072.5" y2="383.2" stroke="#26a69a" stroke-width="1.5"/>
<rect x="1068.0" y="303.1" width="9" height="45.8" fill="none" stroke="#787b86" stroke-width="1" stroke-dasharray="2,2"/>
<rect x="1065.0" y="305.1" width="15" height="41.8" fill="#26a69a"/>
<line x1="1089.5" y1="271.6" x2="1089.5" y2="338.5" stroke="#ef5350" stroke-width="1.5"/>
<rect x="1082.0" y="305.1" width="15" height="16.7" fill="#ef5350"/>
<line x1="1106.5" y1="288.4" x2="1106.5" y2="372.0" stroke="#ef5350" stroke-width="1.5"/>
<rect x="1099.0" y="321.8" width="15" height="33.5" fill="#ef5350"/>
<line x1="1123.5" y1="305.1" x2="1123.5" y2="394.3" stroke="#26a69a" stroke-width="1.5"/>
<rect x="1116.0" y="313.5" width="15" height="41.8" fill="#26a69a"/>
<line x1="1140.5" y1="260.5" x2="1140.5" y2="349.7" stroke="#26a69a" stroke-width="1.5"/>
<rect x="1133.0" y="280.0" width="15" height="33.5" fill="#26a69a"/>
<line x1="1157.5" y1="243.8" x2="1157.5" y2="310.7" stroke="#26a69a" stroke-width="1.5"/>
<rect x="1150.0" y="266.1" width="15" height="13.9" fill="#26a69a"/>
<text x="1174.0" y="98.0" font-size="10" fill="#d1d4dc" text-anchor="start" font-weight="bold">D</text>
<line x1="1186.5" y1="249.3" x2="1186.5" y2="366.4" stroke="#ef5350" stroke-width="1.5"/>
<rect x="1179.0" y="305.1" width="15" height="41.8" fill="#ef5350"/>
<line x1="1203.5" y1="291.2" x2="1203.5" y2="411.0" stroke="#26a69a" stroke-width="1.5"/>
<rect x="1196.0" y="310.7" width="15" height="36.2" fill="#26a69a"/>
<line x1="1220.5" y1="227.0" x2="1220.5" y2="360.8" stroke="#26a69a" stroke-width="1.5"/>
<rect x="1213.0" y="271.6" width="15" height="39.0" fill="#26a69a"/>
<text x="1064.0" y="118.0" font-size="9" fill="#787b86" text-anchor="start">body x2 (old dashed ghost)</text>
<line x1="941.5" y1="160.1" x2="1314" y2="160.1" stroke="#ff9800" stroke-width="1" opacity="0.8"/>
<rect x="1240.0" y="153.1" width="74" height="14" rx="3" fill="#ff9800"/>
<text x="1277.0" y="163.1" font-size="8" fill="#10141c" text-anchor="middle" font-weight="bold">PDH 1.1042</text>
<line x1="941.5" y1="310.7" x2="1314" y2="310.7" stroke="#29b6f6" stroke-width="1" opacity="0.8"/>
<rect x="1240.0" y="303.7" width="74" height="14" rx="3" fill="#29b6f6"/>
<text x="1277.0" y="313.7" font-size="8" fill="#10141c" text-anchor="middle" font-weight="bold">PDL 1.0988</text>
<rect x="797.5" y="372.0" width="516.5" height="-66.9" fill="url(#gb)"/>
<text x="1312.0" y="341.5" font-size="8" fill="#26a69a" text-anchor="end" opacity="0.7">FVG 4H</text>
<rect x="909.5" y="321.8" width="404.5" height="-50.2" fill="rgba(140,140,140,0.05)"/>
<rect x="1083.0" y="372.0" width="81.0" height="-66.9" fill="rgba((38, 166, 154),0.16)"/>
<rect x="1117.0" y="321.8" width="47.0" height="-50.2" fill="rgba((140, 140, 140),0.06)"/>
<rect x="1197.0" y="346.9" width="30.0" height="-69.7" fill="rgba((38, 166, 154),0.16)"/>
<line x1="660" y1="326.0" x2="676" y2="326.0" stroke="#42a5f5" stroke-width="2"/>
<polygon points="676,321.0 684,326.0 676,331.0" fill="#42a5f5"/>
<text x="20.0" y="614.0" font-size="11" fill="#787b86" text-anchor="start">v2 FINAL (user: no borders at all): (1) chart FVG = gradient fade left-&gt;right, pure fill, NO lines, right-edge label on ACTIVE zones only</text>
<text x="20.0" y="631.0" font-size="11" fill="#787b86" text-anchor="start">(2) column FVG = soft lane 16% fill only, no borders, no inner text    (3) PDH/PDL = SOLID 1px line (no dashes) + colored price tag at right edge (auto-shift if close)</text>
<text x="20.0" y="648.0" font-size="11" fill="#787b86" text-anchor="start">(4) anti-clutter cap: chart extension shows the LAST 4 zones per layer (columns keep all, up to 6)    (5) filled zones = whisper gray 5%, no label</text>
</svg>